<svg id="Layer_1" data-name="Layer 1" xmlns="http://www.w3.org/2000/svg" viewBox="0 0 373.98 265.62"><defs><style>.cls-1{fill:#278642;}.cls-2,.cls-3{fill:none;stroke:#278642;stroke-miterlimit:10;}.cls-2{stroke-width:12px;}.cls-3{stroke-width:2px;}</style></defs><title>logos</title><polygon class="cls-1" points="0 132.81 94.12 0 281.61 0 345.19 91.8 304.65 91.8 261.81 29.61 116.69 29.61 42.53 132.81 58.65 154.91 85.37 154.91 85.37 99.17 99.19 99.17 122.68 148.92 145.25 98.71 159.54 98.71 159.54 168.27 143.87 168.27 143.87 132.81 130.51 168.27 119.46 168.27 100.57 132.81 100.57 168.27 28.25 168.27 0 132.81"/><path class="cls-1" d="M51.39,253.45H87.32l39.62,53.44H274.36l72.32-102.72L335.16,188H297.85c-.5-.58-5.37-6.18-12.19-5.34a12.28,12.28,0,0,0-5.56,2.19,8.82,8.82,0,0,0-1.37,5.69c.58,4.23,4.94,7.89,10.83,8.52,8.82,4.47,14.3,12.82,14.15,21.53a21.83,21.83,0,0,1-5.64,13.91c-7,7.39-19.58,9-31.32,3.72-.3-3.69-.61-7.37-.92-11.06.88.42,11.13,5.17,18.52-.08,1.11-.79,4.54-3.22,4.83-7.29.26-3.74-2.21-7.52-6.3-9.67-8.53-1.5-15.39-7.5-17.54-15.36-2.46-9,2.32-16.32,3.09-17.46a24.24,24.24,0,0,1,11.46-7.49c12.59-3.66,23.21,5.15,24.18,6h63.34L387,204.17,296.47,337H109.2Z" transform="translate(-13.01 -71.36)"/><path class="cls-2" d="M219.19,235.29c-16.84,0-30.58-14.13-30.63-30.81-.05-16.52,13.34-30.45,29.64-31,17.58-.55,32.28,14.71,31.6,32.12C249.17,221.63,235.75,235.3,219.19,235.29Z" transform="translate(-13.01 -71.36)"/><polygon class="cls-1" points="183 133.12 194.43 116.99 217.21 116.99 224.94 128.14 220.01 128.14 214.81 120.58 197.17 120.58 188.16 133.12 190.12 135.81 193.37 135.81 193.37 129.04 195.05 129.04 197.9 135.08 200.64 128.98 202.38 128.98 202.38 137.43 200.48 137.43 200.48 133.12 198.85 137.43 197.51 137.43 195.22 133.12 195.22 137.43 186.43 137.43 183 133.12"/><path class="cls-1" d="M200.67,210.47H205l4.81,6.49h17.91l8.79-12.48-1.4-2h-4.54a1.81,1.81,0,0,0-1.48-.65,1.5,1.5,0,0,0-.67.27,1,1,0,0,0-.17.69,1.4,1.4,0,0,0,1.32,1,3,3,0,0,1,1.72,2.61,2.67,2.67,0,0,1-.69,1.69,3.33,3.33,0,0,1-3.8.45l-.12-1.34a2.44,2.44,0,0,0,2.25,0,1.23,1.23,0,0,0,.59-.89,1.3,1.3,0,0,0-.76-1.17,2.67,2.67,0,0,1-2.14-1.87,2.72,2.72,0,0,1,.38-2.12,3,3,0,0,1,1.39-.91,3.4,3.4,0,0,1,2.94.73h7.7l2.38,3.44-11,16.14H207.69Z" transform="translate(-13.01 -71.36)"/><path class="cls-3" d="M221.06,208.26a3.75,3.75,0,0,1-.12-7.5,3.75,3.75,0,1,1,.12,7.5Z" transform="translate(-13.01 -71.36)"/></svg>