<svg id="Layer_1" data-name="Layer 1" xmlns="http://www.w3.org/2000/svg" viewBox="0 0 374.92 271.16"><defs><style>.cls-1{fill:#00987a;}.cls-2{fill:none;stroke:#00987a;stroke-miterlimit:10;stroke-width:13px;}</style></defs><title>logo</title><polygon class="cls-1" points="0 135.58 94.36 0 282.33 0 346.06 93.71 305.42 93.71 262.47 30.23 116.99 30.23 42.63 135.58 58.8 158.14 85.58 158.14 85.58 101.24 99.44 101.24 122.99 152.03 145.62 100.77 159.94 100.77 159.94 171.78 144.24 171.78 144.24 135.58 130.84 171.78 119.76 171.78 100.82 135.58 100.82 171.78 28.32 171.78 0 135.58"/><path class="cls-1" d="M50.75,250.46h36L126.49,305H274.27l72.51-104.86-11.54-16.47H297.83c-.5-.6-5.39-6.32-12.22-5.46a12.13,12.13,0,0,0-5.58,2.24,9.12,9.12,0,0,0-1.37,5.8c.59,4.32,5,8.06,10.86,8.7,8.84,4.57,14.33,13.09,14.19,22a22.58,22.58,0,0,1-5.66,14.2c-7,7.54-19.63,9.19-31.4,3.79q-.45-5.64-.92-11.28c.88.43,11.16,5.27,18.57-.09,1.11-.8,4.54-3.28,4.83-7.44.27-3.81-2.21-7.68-6.31-9.87a22,22,0,0,1-17.59-15.68c-2.45-9.15,2.33-16.66,3.1-17.83a24.47,24.47,0,0,1,11.49-7.64c12.63-3.73,23.27,5.26,24.24,6.11h63.51l19.62,28.94L296.44,335.74H108.71Z" transform="translate(-12.27 -64.58)"/><path class="cls-2" d="M220,230.68c-16.54,0-30-14.14-30.09-30.83,0-16.52,13.11-30.45,29.12-31,17.28-.55,31.71,14.72,31,32.14C249.5,217,236.31,230.68,220,230.68Z" transform="translate(-12.27 -64.58)"/></svg>