<svg xmlns="http://www.w3.org/2000/svg" viewBox="0 0 50 50">
  <path d="M25 2C12.318 2 2 12.318 2 25C2 28.96 3.0228906 32.853062 4.9628906 36.289062L2.0371094 46.730469C1.9411094 47.073469 2.03325 47.440312 2.28125 47.695312C2.47225 47.892313 2.733 48 3 48C3.08 48 3.1612344 47.989703 3.2402344 47.970703L14.136719 45.271484C17.463719 47.057484 21.21 48 25 48C37.682 48 48 37.682 48 25C48 12.318 37.682 2 25 2 z M 16.642578 14C17.036578 14 17.428437 14.005484 17.773438 14.021484C18.136437 14.039484 18.624516 13.883484 19.103516 15.021484C19.595516 16.189484 20.775875 19.058563 20.921875 19.351562C21.069875 19.643563 21.168656 19.984047 20.972656 20.373047C20.776656 20.762047 20.678813 21.006656 20.382812 21.347656C20.086813 21.688656 19.762094 22.107141 19.496094 22.369141C19.200094 22.660141 18.892328 22.974594 19.236328 23.558594C19.580328 24.142594 20.765484 26.051656 22.521484 27.597656C24.776484 29.583656 26.679531 30.200188 27.269531 30.492188C27.859531 30.784188 28.204828 30.734703 28.548828 30.345703C28.892828 29.955703 30.024969 28.643547 30.417969 28.060547C30.810969 27.477547 31.204094 27.572578 31.746094 27.767578C32.288094 27.961578 35.19125 29.372062 35.78125 29.664062C36.37125 29.956063 36.766062 30.102703 36.914062 30.345703C37.062062 30.587703 37.062312 31.754234 36.570312 33.115234C36.078313 34.477234 33.717984 35.721672 32.583984 35.888672C31.565984 36.037672 30.277281 36.10025 28.863281 35.65625C28.006281 35.38625 26.907047 35.028734 25.498047 34.427734C19.575047 31.901734 15.706156 26.012047 15.410156 25.623047C15.115156 25.234047 13 22.46275 13 19.59375C13 16.72475 14.524406 15.314469 15.066406 14.730469C15.608406 14.146469 16.248578 14 16.642578 14 z" fill="#03987A" />
</svg>